{"title":"The Hunter 1980 DVDrip English Klam","uid":6095224,"size":1064580585,"categoryP":"video","categoryS":"movies","magnet":"?xt=urn:btih:dc470c343edc57950d9def280bf12e39b199445c&amp;dn=The+Hunter+1980+DVDrip+English+Klam&amp;tr=udp%3A%2F%2Ftracker.openbittorrent.com%3A80&amp;tr=udp%3A%2F%2Fopen.demonii.com%3A1337&amp;tr=udp%3A%2F%2Ftracker.coppersurfer.tk%3A6969&amp;tr=udp%3A%2F%2Fexodus.desync.com%3A6969","seeders":2,"leechers":1,"uploader":"Klambake","files":-1,"time":1294739491,"description":"With: Steve McQueen, Eli Wallach and Kathryn Harrold\n\nIn order to track down bail jumpers, Ralph 'Papa' Thorson goes on a series of routine and not-so-routine searches. Sometimes he takes down his quarry easily. At other times, he's forced to extreme measures which result in the injury or death of a lawbreaker. And then again, there are other moments when his own life is on the line. It's all enough to make Thorson question what he has done with his life.\n\nGeneral:\n\nComplete name                    : The Hunter.avi\nFormat                           : AVI\nFormat/Info                      : Audio Video Interleave\nFile size                        : 1 015 MiB\nDuration                         : 1h 37mn\nOverall bit rate                 : 1 458 Kbps\nWriting application              : MEncoder dev-SVN-r24988-4.2.1\n\nVideo:\n\nFormat                           : MPEG-4 Visual\nFormat profile                   : Simple@L1\nFormat settings, BVOP            : No\nFormat settings, QPel            : No\nFormat settings, GMC             : No warppoints\nFormat settings, Matrix          : Default (H.263)\nCodec ID                         : DIVX\nCodec ID/Info                    : Project Mayo\nCodec ID/Hint                    : DivX 4\nDuration                         : 1h 37mn\nBit rate                         : 1 316 Kbps\nWidth                            : 720 pixels\nHeight                           : 480 pixels\nDisplay aspect ratio             : 3:2\nFrame rate                       : 29.970 fps\nStandard                         : NTSC\nColor space                      : YUV\nChroma subsampling               : 4:2:0\nBit depth                        : 8 bits\nScan type                        : Progressive\nBits/(Pixel*Frame)               : 0.127\nStream size                      : 916 MiB (90%)\nWriting library                  : Lavc51.48.0\n\nAudio:\n\nFormat                           : MPEG Audio\nFormat version                   : Version 1\nFormat profile                   : Layer 3\nMode                             : Joint stereo\nMode extension                   : MS Stereo\nCodec ID                         : 55\nCodec ID/Hint                    : MP3\nDuration                         : 1h 37mn\nBit rate mode                    : Constant\nBit rate                         : 128 Kbps\nChannel(s)                       : 2 channels\nSampling rate                    : 48.0 KHz\nStream size                      : 89.1 MiB (9%)\nAlignment                        : Aligned on interleaves\nInterleave, duration             : 24 ms (0.72 video frame)\nInterleave, preload duration     : 816 ms\nWriting library                  : LAME3.97\nLanguage                         : un","torrent":{"xt":"urn:btih:dc470c343edc57950d9def280bf12e39b199445c","amp;dn":"The+Hunter+1980+DVDrip+English+Klam","amp;tr":["udp%3A%2F%2Ftracker.openbittorrent.com%3A80","udp%3A%2F%2Fopen.demonii.com%3A1337","udp%3A%2F%2Ftracker.coppersurfer.tk%3A6969","udp%3A%2F%2Fexodus.desync.com%3A6969"],"infoHash":"dc470c343edc57950d9def280bf12e39b199445c","infoHashBuffer":{"type":"Buffer","data":[220,71,12,52,62,220,87,149,13,157,239,40,11,241,46,57,177,153,68,92]},"announce":[],"urlList":[]}}